<svg width="31" height="32" viewBox="0 0 31 32" fill="none" xmlns="http://www.w3.org/2000/svg">
<path d="M17.1958 2.31276C16.3723 2.07057 15.5489 1.87682 14.677 1.73151C14.0473 1.63463 13.3692 1.9737 13.127 2.55495C12.8364 3.1362 12.9817 3.86276 13.4661 4.25026C16.9051 7.44713 18.1645 12.1456 16.7598 16.5534C15.2098 21.4456 10.6567 24.8846 5.37702 25.0299C4.6989 25.0299 4.16608 25.4659 3.97233 26.0956C3.77858 26.7253 4.06921 27.4034 4.60202 27.7424C5.81296 28.469 7.0239 29.0503 8.23483 29.4378C9.63952 29.8737 11.0926 30.0674 12.5458 30.0674C15.0161 30.0674 17.438 29.4378 19.6176 28.2268C23.0567 26.3378 25.4786 23.2862 26.5442 19.6049C28.627 12.3393 24.5098 4.73463 17.1958 2.31276ZM24.4614 18.9753C23.5895 22.1237 21.4583 24.6909 18.6005 26.2893C15.5973 27.9362 12.1583 28.2753 8.91296 27.3065C8.5739 27.2096 8.1864 27.0643 7.84733 26.919C12.9817 25.9018 17.2442 22.2206 18.8426 17.1831C20.2473 12.7268 19.3755 8.02838 16.5176 4.34713C22.7176 6.42995 26.2051 12.8721 24.4614 18.9753Z" fill="white"/>
</svg>
