<svg width="31" height="32" viewBox="0 0 31 32" fill="none" xmlns="http://www.w3.org/2000/svg">
<g clip-path="url(#clip0_852_68)">
<path d="M15.8838 1.66711C7.43896 1.66711 0.484375 8.52235 0.484375 17.0666C0.484375 23.8224 4.90551 29.5848 11.0653 31.6712C11.8601 31.8202 12.1085 31.3235 12.1085 30.9757C12.1085 30.628 12.1085 29.6345 12.0588 28.2933C7.78669 29.2868 6.89253 26.2069 6.89253 26.2069C6.19707 24.4682 5.15388 23.9715 5.15388 23.9715C3.76297 22.978 5.20356 22.978 5.20356 22.978C6.74351 23.0276 7.58799 24.5676 7.58799 24.5676C8.92923 26.952 11.2143 26.2566 12.0588 25.8095C12.2078 24.816 12.6052 24.1205 13.0523 23.7231C9.67437 23.3754 6.04805 22.0341 6.04805 16.1724C6.04805 14.4834 6.69383 13.1422 7.63767 12.099C7.48864 11.7513 6.94221 10.1616 7.78669 8.0256C7.78669 8.0256 9.12794 7.62819 12.0588 9.61522C13.3007 9.26749 14.5923 9.06878 15.9335 9.06878C17.2747 9.06878 18.616 9.21781 19.8082 9.61522C22.7391 7.67787 24.0306 8.0256 24.0306 8.0256C24.8751 10.112 24.3784 11.7513 24.1797 12.099C25.1732 13.1422 25.7693 14.5331 25.7693 16.1724C25.7693 22.0341 22.143 23.3754 18.765 23.7231C19.3114 24.2199 19.8082 25.2134 19.8082 26.6043C19.8082 28.6907 19.7585 30.33 19.7585 30.8267C19.7585 31.2241 20.0566 31.6712 20.8017 31.5222C26.8621 29.4855 31.2833 23.7728 31.2833 16.9672C31.2336 8.52235 24.3287 1.66711 15.8838 1.66711Z" fill="white"/>
</g>
<defs>
<clipPath id="clip0_852_68">
<rect width="31" height="31" fill="white" transform="translate(0 0.375244)"/>
</clipPath>
</defs>
</svg>
