<svg width="31" height="31" viewBox="0 0 31 31" fill="none" xmlns="http://www.w3.org/2000/svg">
<path d="M15.4996 8.9126C11.8668 8.9126 8.91211 11.8673 8.91211 15.5001C8.91211 19.1329 11.8668 22.0876 15.4996 22.0876C19.1324 22.0876 22.0871 19.1329 22.0871 15.5001C22.0871 11.8673 19.1324 8.9126 15.4996 8.9126ZM15.4996 19.9079C13.0777 19.9079 11.0918 17.922 11.0918 15.5001C11.0918 13.0782 13.0777 11.0923 15.4996 11.0923C17.9215 11.0923 19.9074 13.0782 19.9074 15.5001C19.9074 17.922 17.9215 19.9079 15.4996 19.9079Z" fill="white"/>
<path d="M15.4998 5.47349C16.0811 5.47349 16.6139 4.98911 16.6139 4.35942V1.93755C16.6139 1.3563 16.1295 0.823486 15.4998 0.823486C14.9186 0.823486 14.3857 1.30786 14.3857 1.93755V4.40786C14.4342 4.98911 14.9186 5.47349 15.4998 5.47349Z" fill="white"/>
<path d="M15.4998 25.5266C14.9186 25.5266 14.3857 26.011 14.3857 26.6407V29.0625C14.3857 29.6438 14.8701 30.1766 15.4998 30.1766C16.0811 30.1766 16.6139 29.6922 16.6139 29.0625V26.5922C16.6139 26.011 16.0811 25.5266 15.4998 25.5266Z" fill="white"/>
<path d="M23.3949 8.71877C23.6855 8.71877 23.9762 8.6219 24.1699 8.37971L25.7199 6.82971C26.1559 6.39377 26.1559 5.71565 25.7199 5.27971C25.284 4.84377 24.6059 4.84377 24.1699 5.27971L22.6199 6.82971C22.184 7.26565 22.184 7.94377 22.6199 8.37971C22.8137 8.6219 23.1043 8.71877 23.3949 8.71877Z" fill="white"/>
<path d="M6.87793 22.6204L5.32793 24.1219C4.89199 24.5579 4.89199 25.236 5.32793 25.6719C5.52168 25.8657 5.8123 26.011 6.10293 26.011C6.39355 26.011 6.68418 25.9141 6.87793 25.6719L8.42793 24.1219C8.86387 23.686 8.86387 23.0079 8.42793 22.5719C7.99199 22.1844 7.26543 22.1844 6.87793 22.6204Z" fill="white"/>
<path d="M29.0619 14.4344H26.5916C26.0104 14.4344 25.4775 14.9188 25.4775 15.5485C25.4775 16.1298 25.9619 16.6626 26.5916 16.6626H29.0619C29.6432 16.6626 30.176 16.1782 30.176 15.5485C30.176 14.9188 29.6432 14.4344 29.0619 14.4344Z" fill="white"/>
<path d="M5.47324 15.5C5.47324 14.9188 4.98887 14.386 4.35918 14.386H1.9373C1.35605 14.386 0.823242 14.8704 0.823242 15.5C0.823242 16.0813 1.30762 16.6141 1.9373 16.6141H4.40762C4.98887 16.6141 5.47324 16.0813 5.47324 15.5Z" fill="white"/>
<path d="M24.1221 22.6204C23.6861 22.1845 23.008 22.1845 22.5721 22.6204C22.1361 23.0563 22.1361 23.7345 22.5721 24.1704L24.1221 25.7204C24.3158 25.9142 24.6064 26.0595 24.8971 26.0595C25.1877 26.0595 25.4783 25.9626 25.6721 25.7204C26.108 25.2845 26.108 24.6063 25.6721 24.1704L24.1221 22.6204Z" fill="white"/>
<path d="M6.87793 5.32817C6.44199 4.89224 5.76387 4.89224 5.32793 5.32817C4.89199 5.76411 4.89199 6.44224 5.32793 6.87817L6.87793 8.42817C7.07168 8.62192 7.3623 8.76724 7.65293 8.76724C7.94355 8.76724 8.23418 8.67036 8.42793 8.42817C8.86387 7.99224 8.86387 7.31411 8.42793 6.87817L6.87793 5.32817Z" fill="white"/>
</svg>
