<svg width="31" height="32" viewBox="0 0 31 32" fill="none" xmlns="http://www.w3.org/2000/svg">
<g clip-path="url(#clip0_852_70)">
<path d="M28.3363 1.66687H2.71289C1.50195 1.66687 0.533203 2.63562 0.533203 3.84656V29.5184C0.533203 30.6809 1.50195 31.6981 2.71289 31.6981H28.2395C29.4504 31.6981 30.4192 30.7294 30.4192 29.5184V3.79812C30.516 2.63562 29.5473 1.66687 28.3363 1.66687ZM9.39729 27.1934H4.98947V12.9044H9.39729V27.1934ZM7.16916 10.9184C5.71604 10.9184 4.60195 9.75593 4.60195 8.35125C4.60195 6.94656 5.76447 5.78406 7.16916 5.78406C8.57385 5.78406 9.73635 6.94656 9.73635 8.35125C9.73635 9.75593 8.67072 10.9184 7.16916 10.9184ZM26.1082 27.1934H21.7004V20.2669C21.7004 18.62 21.652 16.4403 19.3754 16.4403C17.0504 16.4403 16.7113 18.2809 16.7113 20.1216V27.1934H12.3035V12.9044H16.6145V14.8903H16.6629C17.2926 13.7278 18.6973 12.5653 20.877 12.5653C25.3817 12.5653 26.2051 15.4716 26.2051 19.4434V27.1934H26.1082Z" fill="white"/>
</g>
<defs>
<clipPath id="clip0_852_70">
<rect width="31" height="31" fill="white" transform="translate(0 0.375244)"/>
</clipPath>
</defs>
</svg>
