<svg width="31" height="31" viewBox="0 0 31 31" fill="none" xmlns="http://www.w3.org/2000/svg">
<path d="M3.1 27.9C2.2475 27.9 1.51797 27.5967 0.9114 26.9901C0.304833 26.3836 0.00103333 25.6535 0 24.8V6.19998C0 5.34748 0.3038 4.61794 0.9114 4.01138C1.519 3.40481 2.24853 3.10101 3.1 3.09998H27.9C28.7525 3.09998 29.4825 3.40378 30.0901 4.01138C30.6977 4.61898 31.001 5.34851 31 6.19998V24.8C31 25.6525 30.6967 26.3825 30.0901 26.9901C29.4836 27.5977 28.7535 27.901 27.9 27.9H3.1ZM15.5 16.7787C15.6292 16.7787 15.765 16.7591 15.9076 16.7198C16.0502 16.6806 16.1856 16.6227 16.3137 16.5462L27.28 9.68747C27.4867 9.55831 27.6417 9.39711 27.745 9.20388C27.8483 9.01064 27.9 8.79726 27.9 8.56373C27.9 8.04706 27.6804 7.65956 27.2412 7.40123C26.8021 7.14289 26.35 7.15581 25.885 7.43998L15.5 13.95L5.115 7.43998C4.65 7.15581 4.19792 7.14961 3.75875 7.42138C3.31958 7.69314 3.1 8.07393 3.1 8.56373C3.1 8.82206 3.15167 9.04836 3.255 9.24262C3.35833 9.43689 3.51333 9.58517 3.72 9.68747L14.6862 16.5462C14.8154 16.6237 14.9513 16.6821 15.0939 16.7214C15.2365 16.7606 15.3719 16.7798 15.5 16.7787Z" fill="white"/>
</svg>
