<svg width="256" height="125" viewBox="0 0 256 125" fill="none" xmlns="http://www.w3.org/2000/svg">
<g clip-path="url(#clip0_1028_634)">
<path d="M176.615 68.1082C190.084 60.3722 203.517 52.5732 217.032 44.9182C229.86 37.6492 244.952 44.3522 247.861 58.4962C249.544 66.6782 245.891 75.5172 238.504 79.8222C214.286 93.9352 190.033 107.992 165.659 121.834C158.115 126.118 150.344 125.33 143.469 120.08C136.485 114.75 134.284 107.398 135.922 98.8412C137.792 92.3272 142.072 87.9722 147.909 84.7142C157.559 79.3282 167.054 73.6582 176.615 68.1082Z" fill="white"/>
<path d="M186.476 62.4831C173.041 54.6871 159.572 46.9521 146.184 39.0771C133.475 31.6011 131.735 15.1791 142.529 5.58713C148.773 0.0401306 158.254 -1.21687 165.676 3.02813C190.008 16.9451 214.308 30.9211 238.482 45.1081C245.964 49.4991 249.166 56.6241 248.059 65.2031C246.934 73.9151 241.669 79.4971 233.439 82.3581C226.862 83.9961 220.951 82.4661 215.211 79.0401C205.721 73.3751 196.063 67.9871 186.476 62.4831Z" fill="#10B981"/>
<path d="M79.4803 56.9672C70.8593 61.8652 62.2333 66.7542 53.6203 71.6672C48.5833 74.5412 43.6003 77.5132 38.5373 80.3392C28.3343 86.0342 16.2123 82.6962 10.4273 72.6652C4.90633 63.0932 8.07933 50.6832 17.9053 44.9472C41.9303 30.9242 66.0173 17.0032 90.1913 3.2372C97.6053 -0.983799 105.297 -0.452799 112.153 4.5942C119.389 9.9212 121.758 17.4172 120.133 26.2042C119.125 28.3312 118.523 30.8242 117.013 32.4992C114.559 35.2242 111.769 37.8332 108.663 39.7492C99.0513 45.6762 89.2233 51.2542 79.4803 56.9672Z" fill="white"/>
<path d="M69.5955 62.4611C78.1485 67.4771 86.6955 72.5041 95.2565 77.5061C100.264 80.4321 105.329 83.2611 110.308 86.2321C120.342 92.2221 123.513 104.388 117.718 114.413C112.188 123.981 99.8545 127.439 89.9735 121.796C65.8165 108.001 41.7175 94.1031 17.7095 80.0501C10.3465 75.7401 6.96054 68.8131 7.90354 60.3521C8.89854 51.4211 14.2055 45.6221 22.6285 42.6351C24.9735 42.4461 27.4335 41.7201 29.6395 42.1901C33.2265 42.9541 36.8815 44.0651 40.0935 45.7971C50.0325 51.1571 59.7765 56.8791 69.5955 62.4611Z" fill="#059669"/>
</g>
<defs>
<clipPath id="clip0_1028_634">
<rect width="256" height="125" fill="white"/>
</clipPath>
</defs>
</svg>
